<?xml version="1.0" standalone="no"?>
<!DOCTYPE svg PUBLIC "-//W3C//DTD SVG 1.1//EN" "http://www.w3.org/Graphics/SVG/1.1/DTD/svg11.dtd" >
<svg xmlns="http://www.w3.org/2000/svg">
<metadata>Generated by IcoMoon</metadata>
<defs>
<font id="icomoon" horiz-adv-x="1024">
<font-face units-per-em="1024" ascent="960" descent="-64" />
<missing-glyph horiz-adv-x="1024" />
<glyph unicode="&#x20;" horiz-adv-x="512" d="" />
<glyph unicode="&#xe900;" glyph-name="bianjimoren-01" d="M317.43-57.070h-134.73c-81.78 0-148.32 66.54-148.32 148.32v720.43c0 81.78 66.54 148.32 148.32 148.32h579.17c81.79 0 148.33-66.54 148.33-148.32v-223.41c0-19.507-15.813-35.32-35.32-35.32s-35.32 15.813-35.32 35.32v223.41c-0.051 42.886-34.804 77.639-77.685 77.69h-579.175c-42.891-0.046-77.649-34.8-77.7-77.685v-720.435c0.051-42.886 34.804-77.639 77.685-77.69h134.745c19.249-0.334 34.726-16.017 34.726-35.315s-15.476-34.981-34.694-35.315h-0.031zM732.27 665.56h-520c-19.249 0.334-34.726 16.017-34.726 35.315s15.476 34.981 34.694 35.315h520.031c0.177 0.003 0.385 0.005 0.594 0.005 19.507 0 35.32-15.813 35.32-35.32s-15.813-35.32-35.32-35.32c-0.209 0-0.417 0.002-0.626 0.005h0.031zM548.64 447.38h-336.35c-19.249 0.334-34.726 16.017-34.726 35.315s15.476 34.981 34.694 35.315h336.381c19.249-0.334 34.726-16.017 34.726-35.315s-15.476-34.981-34.694-35.315h-0.031zM407.38 229.21h-195.090c-19.249 0.334-34.726 16.017-34.726 35.315s15.476 34.981 34.694 35.315h195.121c19.249-0.334 34.726-16.017 34.726-35.315s-15.476-34.981-34.694-35.315h-0.031zM580.12-64h-0.42l-115.050 0.62c-34.79 0.319-62.906 28.439-63.22 63.2v0.030l-0.62 115c0 0.063 0 0.138 0 0.212 0 21.518 8.687 41.007 22.744 55.152l331.266 331.286c14.392 14.403 34.281 23.312 56.25 23.312s41.858-8.909 56.249-23.311l99.001-99.001c14.403-14.392 23.312-34.281 23.312-56.25s-8.909-41.858-23.311-56.249l-331.271-331.251c-14.085-14.014-33.489-22.694-54.919-22.75h-0.011zM472 7.21l108.070-0.58c1.95 0.004 3.716 0.79 5.001 2.061l331.309 331.309c1.613 1.614 2.61 3.843 2.61 6.305s-0.997 4.691-2.61 6.305l-99 99c-1.614 1.613-3.843 2.61-6.305 2.61s-4.691-0.997-6.305-2.61l-331.27-331.3c-1.273-1.268-2.060-3.022-2.060-4.96 0-0.014 0-0.028 0-0.043v0.002zM857.88 196.2c-0.023 0-0.051 0-0.078 0-9.738 0-18.551 3.956-24.921 10.349l-161.521 161.551c-5.96 6.308-9.623 14.84-9.623 24.228 0 19.501 15.809 35.31 35.31 35.31 9.395 0 17.934-3.669 24.26-9.653l-0.017 0.015 161.56-161.52c6.383-6.39 10.33-15.214 10.33-24.96 0-19.507-15.813-35.32-35.32-35.32-0.004 0-0.007 0-0.011 0h0.001z" />
<glyph unicode="&#xe901;" glyph-name="bianliangguanlimoren" d="M874.67-64h-725.34c-82.33 0-149.33 67-149.33 149.33v725.34c0 82.33 67 149.33 149.33 149.33h725.34c82.33 0 149.33-67 149.33-149.33v-725.34c0-82.33-67-149.33-149.33-149.33zM149.33 888.89c-43.177-0.057-78.163-35.043-78.22-78.215v-725.345c0.057-43.177 35.043-78.163 78.215-78.22h725.345c43.177 0.057 78.163 35.043 78.22 78.215v725.345c-0.057 43.177-35.043 78.163-78.215 78.22h-0.005zM979.79 598.73h-935.6c-19.381 0.335-34.964 16.125-34.964 35.555s15.583 35.22 34.932 35.555h935.631c0.177 0.003 0.387 0.005 0.596 0.005 19.639 0 35.56-15.921 35.56-35.56s-15.921-35.56-35.56-35.56c-0.21 0-0.419 0.002-0.628 0.005h0.031zM642 142.53h-34.39c-23.981 0.007-44.878 13.203-55.834 32.728l-0.166 0.322-131.36 237.42-42.57 1c-19.248 0.497-34.661 16.219-34.661 35.54 0 19.634 15.917 35.551 35.551 35.551 0.313 0 0.625-0.004 0.936-0.012l-0.046 0.001 46.64-1.17c23.337-0.652 43.495-13.654 54.234-32.679l0.166-0.321 131.31-237.26h30.19c19.639 0 35.56-15.921 35.56-35.56s-15.921-35.56-35.56-35.56v0zM313.19 143.77c-19.381 0.335-34.964 16.125-34.964 35.555s15.583 35.22 34.932 35.555h43.571l247.66 251.2c11.649 11.736 27.775 19.015 45.601 19.060h60.839c0.177 0.003 0.387 0.005 0.596 0.005 19.639 0 35.56-15.921 35.56-35.56s-15.921-35.56-35.56-35.56c-0.21 0-0.419 0.002-0.628 0.005h-57.869l-247.67-251.16c-11.625-11.722-27.717-18.998-45.508-19.060h-46.532z" />
<glyph unicode="&#xe902;" d="M671.080 666.26h-415.080c-0.207-0.003-0.451-0.005-0.696-0.005-26.753 0-48.44 21.687-48.44 48.44s21.687 48.44 48.44 48.44c0.245 0 0.489-0.002 0.733-0.005h415.043c0.207 0.003 0.451 0.005 0.696 0.005 26.753 0 48.44-21.687 48.44-48.44s-21.687-48.44-48.44-48.44c-0.245 0-0.489 0.002-0.733 0.005h0.037z" />
<glyph unicode="&#xe903;" d="M581.29-64h-408.82c-87.75 0-159.14 71.39-159.14 159.14v705.72c0 87.75 71.39 159.14 159.14 159.14h582.1c87.75 0 159.13-71.39 159.13-159.14v-284.57c0-26.747-21.683-48.43-48.43-48.43s-48.43 21.683-48.43 48.43v0 284.57c-0.040 34.375-27.895 62.23-62.266 62.27h-582.104c-34.375-0.040-62.23-27.895-62.27-62.266v-705.724c0.040-34.375 27.895-62.23 62.266-62.27h408.824c26.452-0.392 47.744-21.927 47.744-48.435s-21.292-48.043-47.707-48.435h-0.037z" />
<glyph unicode="&#xe904;" d="M1010.1 300.34c-7.382 86.457-79.381 153.836-167.117 153.836-41.163 0-78.862-14.832-108.045-39.442l0.251 0.207c-28.933 24.409-66.635 39.243-107.803 39.243-87.739 0-159.739-67.383-167.075-153.222l-0.043-0.621c-4.27-51.84 15.29-101.84 52.73-136.34l190.060-188.6c8.256-8.151 19.605-13.185 32.13-13.185s23.874 5.034 32.135 13.19l-0.005-0.005 189.23 187.8c33.329 30.632 54.142 74.432 54.142 123.094 0 4.944-0.215 9.839-0.636 14.674l0.044-0.627z" />
<glyph unicode="&#xe905;" glyph-name="fanganpeizhimoren" d="M512 387c-0.012 0-0.027 0-0.042 0-10.554 0-20.52 2.52-29.328 6.99l0.37-0.17-444.54 222.18c-21.214 10.785-35.495 32.45-35.495 57.45s14.281 46.665 35.13 57.281l0.365 0.168 444.54 222.28c8.463 4.301 18.455 6.821 29.035 6.821s20.572-2.52 29.407-6.992l-0.372 0.171 444.45-222.25c21.227-10.775 35.52-32.443 35.52-57.45s-14.293-46.675-35.155-57.282l-0.365-0.168-444.52-222.24c-8.425-4.282-18.371-6.79-28.903-6.79-0.034 0-0.068 0-0.102 0h0.005zM84.64 673.48l427.36-213.67 427.34 213.67-427.34 213.68zM512 159.25c-0.005 0-0.010 0-0.016 0-10.563 0-20.537 2.52-29.355 6.99l0.371-0.17-444.54 222.25c-11.984 6.017-20.064 18.211-20.064 32.293 0 19.893 16.126 36.019 36.019 36.019 5.933 0 11.532-1.435 16.467-3.976l-0.202 0.095 441.32-220.65 441.3 220.65c4.733 2.447 10.332 3.882 16.265 3.882 19.893 0 36.019-16.126 36.019-36.019 0-14.081-8.080-26.275-19.857-32.198l-0.207-0.094-444.52-222.25c-8.447-4.3-18.421-6.82-28.984-6.82-0.006 0-0.011 0-0.017 0h0.001zM512-64c-0.011 0-0.023 0-0.036 0-10.555 0-20.522 2.516-29.335 6.98l0.371-0.17-444.54 222.26c-11.984 6.017-20.064 18.211-20.064 32.293 0 19.893 16.126 36.019 36.019 36.019 5.933 0 11.532-1.435 16.467-3.976l-0.202 0.095 441.32-220.66 441.3 220.66c4.733 2.447 10.332 3.882 16.265 3.882 19.893 0 36.019-16.126 36.019-36.019 0-14.081-8.080-26.275-19.857-32.198l-0.207-0.094-444.52-222.26c-8.442-4.294-18.409-6.81-28.964-6.81-0.013 0-0.025 0-0.038 0h0.002z" />
<glyph unicode="&#xe906;" glyph-name="huanzheguanlimoren" d="M439.375 888.9c105.85 0 192-86.11 192-192s-86.11-192-192-192-192 86.11-192 192 86.11 192 192 192zM439.375 960c-145.28 0-263.060-117.77-263.060-263.060s117.78-263.060 263.060-263.060 263.060 117.78 263.060 263.060-117.77 263.060-263.060 263.060zM465.795-64h-312.36c-83.080 0-150.66 67.58-150.66 150.66 0 230.83 187.79 418.61 418.62 418.61h37.84c0.177 0.003 0.387 0.005 0.596 0.005 19.634 0 35.55-15.916 35.55-35.55s-15.916-35.55-35.55-35.55c-0.21 0-0.419 0.002-0.628 0.005h-37.809c-191.63 0-347.53-155.9-347.53-347.52 0.051-43.923 35.647-79.515 79.566-79.56h312.364c19.634 0 35.55-15.916 35.55-35.55s-15.916-35.55-35.55-35.55v0zM842.295 369.78l21.6-12.47c-2.069-8.56-3.255-18.387-3.255-28.492 0-56.608 37.236-104.519 88.55-120.577l0.895-0.241v-24.94c-52.213-16.293-89.452-64.204-89.452-120.813 0-10.099 1.185-19.922 3.424-29.336l-0.172 0.859-21.57-12.45c-22.378 20.995-52.547 33.917-85.733 34h-0.757c-33.259-0.050-63.489-12.978-85.979-34.064l0.069 0.064-21.6 12.48c2.063 8.548 3.245 18.362 3.245 28.453 0 56.61-37.229 104.525-88.54 120.595l-0.895 0.242v24.91c31.083 9.65 56.399 30.11 72.108 56.887l0.322 0.593 0.95 1.65c10.339 17.687 16.444 38.941 16.444 61.62 0 10.18-1.23 20.073-3.549 29.537l0.176-0.848 21.32 12.31c22.385-21.002 52.566-33.927 85.765-34h0.735c33.255 0.053 63.481 12.98 85.969 34.064l-0.069-0.064zM833.695 451.5c-0.002 0-0.004 0-0.007 0-12.755 0-23.899-6.898-29.905-17.166l-0.089-0.164c-9.615-16.422-27.17-27.277-47.26-27.28h-0.69c-20.035 0.008-37.538 10.839-46.981 26.963l-0.139 0.257v0.060c-6.102 10.433-17.251 17.329-30.010 17.329-6.377 0-12.351-1.723-17.483-4.728l0.164 0.089-75.3-43.48c-10.478-6.091-17.411-17.265-17.411-30.057 0-6.378 1.723-12.354 4.729-17.486l-0.089 0.164 0.68-1.17c4.395-7.491 6.99-16.497 6.99-26.11s-2.595-18.619-7.124-26.357l0.134 0.247-0.93-1.61c-9.61-16.441-27.175-27.31-47.279-27.31 0 0-0.001 0-0.001 0v0c-0.006 0-0.013 0-0.020 0-19.137 0-34.65-15.513-34.65-34.65 0-0.014 0-0.028 0-0.042v0.002-86.95c0-19.137 15.513-34.65 34.65-34.65v0c0.003 0 0.007 0 0.010 0 20.079 0 37.621-10.863 47.071-27.032l0.139-0.258 0.15-0.26 0.16-0.27c4.598-7.822 7.313-17.229 7.313-27.27s-2.716-19.448-7.452-27.527l0.139 0.257c-2.917-4.969-4.639-10.943-4.639-17.32 0-12.759 6.897-23.908 17.166-29.922l0.164-0.089 75.3-43.48c4.969-2.917 10.943-4.639 17.32-4.639 12.759 0 23.908 6.897 29.922 17.166l0.089 0.164c9.616 16.424 27.174 27.28 47.268 27.28 0.001 0 0.002 0 0.003 0h0.68c0.003 0 0.007 0 0.011 0 20.034 0 37.541-10.824 46.99-26.943l0.139-0.257v-0.060c6.1-10.44 17.253-17.342 30.018-17.342 6.386 0 12.368 1.727 17.505 4.741l-0.163-0.088 75.31 43.48c10.433 6.102 17.329 17.251 17.329 30.010 0 6.377-1.723 12.351-4.728 17.483l0.089-0.164v0.070c-4.581 7.804-7.286 17.189-7.286 27.205s2.705 19.401 7.426 27.462l-0.139-0.257 0.33 0.57c9.601 16.446 27.165 27.32 47.268 27.32 0.001 0 0.002 0 0.002 0v0c19.137 0 34.65 15.513 34.65 34.65v0 86.92c0 19.137-15.513 34.65-34.65 34.65v0c-0.007 0-0.016 0-0.024 0-20.107 0-37.671 10.889-47.116 27.091l-0.14 0.259-0.15 0.27-0.16 0.27c-4.585 7.814-7.294 17.21-7.294 27.239 0 10.021 2.704 19.411 7.423 27.479l-0.139-0.258c2.918 4.97 4.642 10.946 4.642 17.324 0 12.756-6.893 23.903-17.158 29.917l-0.163 0.089-75.32 43.53c-4.954 2.917-10.914 4.64-17.276 4.64-0.005 0-0.010 0-0.015 0h0.001zM755.975 247.14c0.022 0 0.048 0 0.073 0 28.487 0 51.58-23.093 51.58-51.58 0-18.985-10.256-35.574-25.53-44.528l-0.243-0.132c-7.317-4.337-16.128-6.9-25.538-6.9-0.039 0-0.079 0-0.118 0h0.006c-0.025 0-0.054 0-0.084 0-28.487 0-51.58 23.093-51.58 51.58 0 18.985 10.256 35.574 25.53 44.528l0.243 0.132c7.321 4.337 16.135 6.9 25.549 6.9 0.039 0 0.078 0 0.117 0h-0.006zM755.975 304c-59.873-0.037-108.395-48.582-108.395-108.46 0-59.901 48.559-108.46 108.46-108.46s108.46 48.559 108.46 108.46c0 19.963-5.393 38.666-14.802 54.732l0.277-0.512c-18.989 32.645-53.807 54.241-93.669 54.241-0.116 0-0.233 0-0.349-0.001h0.018z" />
<glyph unicode="&#xe907;" glyph-name="keyanxiangmumoren" d="M512.003-63.995c-0.177-0.003-0.387-0.005-0.596-0.005-19.639 0-35.56 15.921-35.56 35.56s15.921 35.56 35.56 35.56c0.21 0 0.419-0.002 0.628-0.005h-0.031c243.109 0 440.888 197.789 440.888 440.888s-197.779 440.888-440.888 440.888-440.888-197.789-440.888-440.888c0.003-0.177 0.005-0.387 0.005-0.596 0-19.639-15.921-35.56-35.56-35.56s-35.56 15.921-35.56 35.56c0 0.21 0.002 0.419 0.005 0.628v-0.031c0 282.319 229.679 511.997 511.997 511.997s511.997-229.679 511.997-511.997-229.679-511.997-511.997-511.997zM245.004 412.443c-19.639 0-35.56 15.921-35.56 35.56v0c0 237.439 167.999 447.488 399.488 499.448 2.426 0.591 5.212 0.929 8.077 0.929 19.639 0 35.56-15.921 35.56-35.56 0-16.981-11.903-31.182-27.82-34.715l-0.236-0.044c-199.299-44.73-343.948-225.589-343.948-430.058 0-19.639-15.921-35.56-35.56-35.56v0zM737.421 217.564c-19.626 0.024-35.527 15.94-35.527 35.57 0 5.266 1.145 10.266 3.198 14.762l-0.091-0.222c24.275 52.699 38.431 114.348 38.431 179.304 0 0.36 0 0.72-0.001 1.081v-0.056c0 204.469-144.649 385.328-343.998 430.058-16.297 3.464-28.347 17.735-28.347 34.821 0 19.639 15.921 35.56 35.56 35.56 2.973 0 5.861-0.365 8.621-1.052l-0.245 0.052c231.509-51.94 399.518-261.989 399.518-499.438 0.001-0.319 0.001-0.696 0.001-1.073 0-75.484-16.451-147.126-45.962-211.536l1.301 3.17c-5.708-12.483-18.087-21-32.455-21-0.002 0-0.003 0-0.005 0v0zM512.003 420.523c-19.639 0-35.56 15.921-35.56 35.56v0 461.548c0 19.639 15.921 35.56 35.56 35.56s35.56-15.921 35.56-35.56v0-461.548c0-19.639-15.921-35.56-35.56-35.56v0zM38.965 571.152h946.075v-71.11h-946.075zM512.003-63.995c-106.719 0-207.789 32.090-294.209 93.12l-56.66-56.67c-9.895-9.892-23.563-16.011-38.66-16.011-30.192 0-54.669 24.47-54.68 54.659v305.37c0.040 30.177 24.492 54.63 54.666 54.67h305.373c30.191-0.011 54.661-24.488 54.661-54.68 0-15.092-6.114-28.756-16.001-38.65v0l-53.3-53.28c71.193-51.56 160.265-82.489 256.559-82.53h0.010c0.352-0.001 0.77-0.002 1.187-0.002 71.371 0 138.738 17.143 198.208 47.536l-2.466-1.144c4.98 2.548 10.864 4.041 17.097 4.041 21.092 0 38.19-17.098 38.19-38.19 0-8.963-3.088-17.204-8.257-23.719l0.060 0.079c-97.78-123.649-244.269-194.599-401.778-194.599zM211.864 123.764l24.86-19.91c79-63.29 174.179-96.74 275.279-96.74 0.278-0.001 0.607-0.001 0.936-0.001 88.471 0 170.827 26.182 239.742 71.221l-1.68-1.030c-24.288-4.047-52.275-6.36-80.801-6.36-0.165 0-0.33 0-0.494 0h0.026c-127.573 0.035-244.229 46.749-333.822 123.989l0.664-0.559-29.1 25 80.67 80.63h-249.239v-249.209zM512.003 654.002c-121.929 0-237.999 58.7-310.488 156.999l49.84 36.74c60.86-82.53 158.299-131.819 260.649-131.819s199.789 49.29 260.639 131.839l49.83-36.76c-72.47-98.28-188.539-156.999-310.468-156.999z" />
<glyph unicode="&#xe908;" glyph-name="mobanguanlimoren" d="M912.855 315.76c-0.003 0-0.006 0-0.010 0-19.418 0-35.16 15.742-35.16 35.16v461.4c-0.057 42.696-34.654 77.293-77.344 77.35h-576.686c-42.696-0.057-77.293-34.654-77.35-77.344v-461.406c-0.333-19.167-15.95-34.577-35.165-34.577s-34.831 15.41-35.165 34.546v461.431c0.020 81.43 66.25 147.68 147.68 147.68h576.68c81.43 0 147.66-66.25 147.66-147.68v-461.4c0-19.411-15.73-35.149-35.139-35.16h-0.001zM694.845 669.68h-365.7c-19.167 0.333-34.577 15.95-34.577 35.165s15.41 34.831 34.546 35.165h365.731c19.167-0.333 34.577-15.95 34.577-35.165s-15.41-34.831-34.546-35.165h-0.031zM694.845 493.56h-365.7c-19.418 0-35.16 15.742-35.16 35.16s15.742 35.16 35.16 35.16v0h365.7c19.418 0 35.16-15.742 35.16-35.16s-15.742-35.16-35.16-35.16v0zM926.915-64h-829.84c-50.467 0.057-91.363 40.953-91.42 91.415v267.245c0.057 50.467 40.953 91.363 91.415 91.42h223.355c29.35 0 54.7-20.21 61.62-49.17 14.6-59.187 67.23-102.387 129.95-102.387s115.35 43.2 129.758 101.469l0.192 0.918c6.92 29 32.27 49.16 61.62 49.16h223.35c50.467-0.057 91.363-40.953 91.42-91.415v-267.235c-0.057-50.467-40.953-91.363-91.415-91.42h-0.005zM97.075 315.76c-11.64-0.023-21.069-9.458-21.080-21.099v-267.241c0.011-11.647 9.453-21.084 21.099-21.090h829.821c11.639 0.017 21.069 9.45 21.080 21.089v267.241c-0.011 11.649-9.451 21.089-21.099 21.1h-217.751c-23.955-87.967-103.124-151.58-197.15-151.58s-173.195 63.613-196.817 150.149l-0.333 1.43z" />
<glyph unicode="&#xe909;" glyph-name="shanchumoren-01" horiz-adv-x="1025" d="M989.308 736.849h-953.142c-0.177-0.003-0.387-0.005-0.596-0.005-19.645 0-35.57 15.925-35.57 35.57s15.925 35.57 35.57 35.57c0.21 0 0.419-0.002 0.628-0.005h953.111c0.177 0.003 0.387 0.005 0.596 0.005 19.645 0 35.57-15.925 35.57-35.57s-15.925-35.57-35.57-35.57c-0.21 0-0.419 0.002-0.628 0.005h0.031zM739.8 735.689h-454.125v126.125c0.063 52.586 42.687 95.196 95.272 95.236h263.636c52.559-0.034 95.159-42.621 95.216-95.171v-0.005zM356.894 806.829h311.726v55.015c-0.034 13.245-10.762 23.973-24.003 24.007h-263.665c-13.307-0.017-24.090-10.8-24.107-24.105v-0.002zM754.584-61.050h-483.693c-82.363 0-149.371 67.018-149.371 149.371v718.507h782.435v-718.507c0-82.363-67.008-149.371-149.371-149.371zM192.649 735.689v-647.368c0.051-43.191 35.051-78.19 78.237-78.241h483.698c43.191 0.051 78.19 35.051 78.241 78.237v647.373zM327.796 138.155c-19.639 0-35.56 15.921-35.56 35.56 0 0.004 0 0.007 0 0.011v-0.001 398.309c0.335 19.386 16.13 34.973 35.565 34.973s35.229-15.587 35.564-34.942v-398.34c0-19.645-15.925-35.57-35.57-35.57v0zM512.737 138.155c-19.645 0-35.57 15.925-35.57 35.57v0 398.309c0 19.645 15.925 35.57 35.57 35.57s35.57-15.925 35.57-35.57v0-398.309c0-19.645-15.925-35.57-35.57-35.57v0zM697.678 138.155c-19.645 0-35.57 15.925-35.57 35.57v0 398.309c0.335 19.386 16.13 34.973 35.565 34.973s35.229-15.587 35.564-34.942v-398.34c0-0.003 0-0.006 0-0.010 0-19.639-15.921-35.56-35.56-35.56v0z" />
<glyph unicode="&#xe90a;" glyph-name="shijianzhoumoren-01" d="M163.69 888.89c0.003 0 0.006 0 0.010 0 47.822 0 86.59-38.768 86.59-86.59s-38.768-86.59-86.59-86.59c-47.822 0-86.59 38.768-86.59 86.59v0c0.051 47.798 38.783 86.533 86.575 86.59h0.005zM163.69 960c-87.095 0-157.7-70.605-157.7-157.7s70.605-157.7 157.7-157.7c87.095 0 157.7 70.605 157.7 157.7v0c0 0.003 0 0.007 0 0.010 0 87.090-70.6 157.69-157.69 157.69-0.004 0-0.007 0-0.011 0h0.001zM163.69 362.67c0.003 0 0.006 0 0.010 0 47.822 0 86.59-38.768 86.59-86.59s-38.768-86.59-86.59-86.59c-47.822 0-86.59 38.768-86.59 86.59v0c0.051 47.798 38.783 86.533 86.575 86.59h0.005zM163.69 433.78c-87.095 0-157.7-70.605-157.7-157.7s70.605-157.7 157.7-157.7c87.095 0 157.7 70.605 157.7 157.7v0c0 0.003 0 0.007 0 0.010 0 87.090-70.6 157.69-157.69 157.69-0.004 0-0.007 0-0.011 0h0.001zM128.14 699.51h71.11v-312.89h-71.11zM163.69-64c-19.634 0-35.55 15.916-35.55 35.55 0 0.004 0 0.007 0 0.011v-0.001 184.88c-0.003 0.177-0.005 0.387-0.005 0.596 0 19.639 15.921 35.56 35.56 35.56s35.56-15.921 35.56-35.56c0-0.21-0.002-0.419-0.005-0.628v0.031-184.88c0-19.639-15.921-35.56-35.56-35.56v0zM827.9 545.19h-0.37l-392.23 4c-19.479 0.202-35.192 16.040-35.192 35.548 0 0.131 0.001 0.261 0.002 0.392v-0.020c0.21 19.63 16.33 34.9 35.92 35.19l392.22-4c19.316-0.418 34.815-16.175 34.815-35.552 0-19.5-15.696-35.335-35.144-35.558h-0.021zM982.45 762.76h-0.26l-546.78 4c-19.527 0.147-35.301 16.011-35.301 35.559 0 0.088 0 0.176 0.001 0.264v-0.014c0.14 19.65 16.58 35.7 35.81 35.3l546.78-4c19.332-0.397 34.852-16.163 34.852-35.553 0-19.478-15.661-35.299-35.078-35.557h-0.024zM982.45 216.69h-0.26l-546.78 4c-19.527 0.147-35.301 16.011-35.301 35.559 0 0.088 0 0.176 0.001 0.264v-0.014c0.14 19.65 16.58 35.87 35.81 35.3l546.78-4c19.332-0.397 34.852-16.163 34.852-35.553 0-19.478-15.661-35.299-35.078-35.557h-0.024zM827.9-0.88h-0.37l-392.23 4c-19.315 0.42-34.812 16.176-34.812 35.552 0 19.503 15.7 35.338 35.151 35.558h0.361l392.22-4c19.564-0.099 35.385-15.982 35.385-35.56 0-19.639-15.921-35.56-35.56-35.56-0.062 0-0.123 0-0.185 0h0.010z" />
<glyph unicode="&#xe90b;" glyph-name="shujudaochumoren" d="M803.56-64h-583.12c-82.34 0-149.33 67-149.33 149.33v725.34c0 82.33 66.99 149.33 149.33 149.33h583.12c82.34 0 149.33-67 149.33-149.33v-725.34c0-82.33-66.99-149.33-149.33-149.33zM220.44 888.89c-43.177-0.057-78.163-35.043-78.22-78.215v-725.345c0.057-43.177 35.043-78.163 78.215-78.22h583.125c43.177 0.057 78.163 35.043 78.22 78.215v725.345c-0.057 43.177-35.043 78.163-78.215 78.22h-0.005zM693.080 523.56c-0.001 0-0.002 0-0.004 0-9.821 0-18.711 3.991-25.135 10.439l-155.941 155.911-155.94-155.91c-6.434-6.434-15.322-10.413-25.14-10.413-19.636 0-35.553 15.918-35.553 35.553 0 9.818 3.979 18.706 10.413 25.14l163.85 163.82c10.844 10.855 25.83 17.569 42.385 17.569s31.541-6.715 42.385-17.569v0l163.82-163.85c6.435-6.434 10.415-15.322 10.415-25.14 0-19.634-15.916-35.55-35.55-35.55-0.002 0-0.003 0-0.005 0v0zM512 312.090c-19.639 0-35.56 15.921-35.56 35.56v0 377.78c0 19.639 15.921 35.56 35.56 35.56s35.56-15.921 35.56-35.56v-377.78c0-19.639-15.921-35.56-35.56-35.56v0zM753.78 158.15h-483.56c-19.381 0.335-34.964 16.125-34.964 35.555s15.583 35.22 34.932 35.555h483.591c19.381-0.335 34.964-16.125 34.964-35.555s-15.583-35.22-34.932-35.555h-0.031z" />
<glyph unicode="&#xe90c;" glyph-name="shujuzhikongmoren" horiz-adv-x="1032" d="M880.902 115.357h-730.011c-82.86 0-150.292 67.431-150.292 150.302v543.92c0 82.87 67.431 150.292 150.292 150.292h730.011c82.86 0 150.292-67.421 150.292-150.292v-543.92c0-82.87-67.431-150.302-150.292-150.302zM150.892 888.302c-43.455-0.057-78.666-35.269-78.724-78.718v-543.925c0.052-43.459 35.265-78.677 78.718-78.734h730.016c43.458 0.057 78.672 35.275 78.724 78.729v543.925c-0.057 43.455-35.269 78.666-78.718 78.724h-0.005zM995.405-63.86h-959.016c-0.179-0.003-0.389-0.005-0.6-0.005-19.766 0-35.789 16.023-35.789 35.789s16.023 35.789 35.789 35.789c0.211 0 0.422-0.002 0.632-0.005h958.984c0.179 0.003 0.389 0.005 0.6 0.005 19.766 0 35.789-16.023 35.789-35.789s-16.023-35.789-35.789-35.789c-0.211 0-0.422 0.002-0.632 0.005h0.032zM328.418 628.872h-127.818c-0.179-0.003-0.389-0.005-0.6-0.005-19.766 0-35.789 16.023-35.789 35.789s16.023 35.789 35.789 35.789c0.211 0 0.422-0.002 0.632-0.005h127.786c0.179 0.003 0.389 0.005 0.6 0.005 19.766 0 35.789-16.023 35.789-35.789s-16.023-35.789-35.789-35.789c-0.211 0-0.422 0.002-0.632 0.005h0.032zM831.164 628.872h-343.528c-0.179-0.003-0.389-0.005-0.6-0.005-19.766 0-35.789 16.023-35.789 35.789s16.023 35.789 35.789 35.789c0.211 0 0.422-0.002 0.632-0.005h343.496c0.179 0.003 0.389 0.005 0.6 0.005 19.766 0 35.789-16.023 35.789-35.789s-16.023-35.789-35.789-35.789c-0.211 0-0.422 0.002-0.632 0.005h0.032zM398.647 558.643c-0.003 0-0.007 0-0.010 0-58.552 0-106.018 47.466-106.018 106.018s47.466 106.018 106.018 106.018c58.552 0 106.018-47.466 106.018-106.018v0c-0.063-58.523-47.486-105.95-106.002-106.018h-0.007zM398.647 699.102c-19.021 0-34.44-15.419-34.44-34.44s15.419-34.44 34.44-34.44c19.021 0 34.44 15.419 34.44 34.44v0c-0.023 19.012-15.429 34.417-34.438 34.44h-0.002zM831.164 374.787h-127.818c-19.506 0.338-35.189 16.229-35.189 35.784s15.683 35.446 35.157 35.784h127.85c0.179 0.003 0.389 0.005 0.6 0.005 19.766 0 35.789-16.023 35.789-35.789s-16.023-35.789-35.789-35.789c-0.211 0-0.422 0.002-0.632 0.005h0.032zM544.158 374.787h-343.528c-0.179-0.003-0.389-0.005-0.6-0.005-19.766 0-35.789 16.023-35.789 35.789s16.023 35.789 35.789 35.789c0.211 0 0.422-0.002 0.632-0.005h343.496c0.179 0.003 0.389 0.005 0.6 0.005 19.766 0 35.789-16.023 35.789-35.789s-16.023-35.789-35.789-35.789c-0.211 0-0.422 0.002-0.632 0.005h0.032zM633.157 304.567c-58.542 0.006-105.998 47.465-105.998 106.008 0 58.547 47.462 106.008 106.008 106.008s106.008-47.462 106.008-106.008v0c-0.069-58.523-47.495-105.945-106.012-106.008h-0.006zM633.157 445.016c-19.017-0.006-34.43-15.423-34.43-34.44 0-19.021 15.419-34.44 34.44-34.44s34.44 15.419 34.44 34.44v0c-0.040 19.002-15.445 34.393-34.449 34.41h-0.002z" />
<glyph unicode="&#xe90d;" glyph-name="xitongshezhimoren" d="M511.931 561.422c0.078 0 0.171 0 0.264 0 67.946 0 123.027-55.081 123.027-123.027s-55.081-123.027-123.027-123.027c-45.313 0-84.905 24.498-106.253 60.972l-0.314 0.581c-10.348 17.636-16.46 38.841-16.46 61.474 0 67.853 54.93 122.876 122.748 123.026h0.014zM511.931 645.95c-0.003 0-0.007 0-0.011 0-38.133 0-73.853-10.333-104.512-28.353l0.97 0.527c-99.242-57.292-133.239-184.19-75.946-283.432 36.513-62.476 103.259-103.781 179.652-103.781 38.214 0 74.014 10.336 104.757 28.364l-0.977-0.53c99.242 57.292 133.239 184.19 75.946 283.432-36.517 62.448-103.246 103.733-179.618 103.733-0.095 0-0.191 0-0.286 0h0.015zM356.077 851.555c32.979-42.028 83.711-68.83 140.71-69.015h0.031c1.67 0 3.351 0 5.001 0.070q4.881 0.13 9.752 0.14 5.151 0 10.292-0.15c1.78-0.060 3.551-0.080 5.331-0.080 57.090 0.149 107.894 26.935 140.659 68.58l0.292 0.385c47.448-18.016 88.413-42.086 124.514-71.843l-0.747 0.598c-8.378-19.951-13.246-43.14-13.246-67.465 0-34.689 9.899-67.065 27.026-94.459l-0.437 0.75q2.591-4.201 5.081-8.502t4.821-8.652c26.946-49.275 75.161-84.021 131.964-92.021l0.944-0.109c3.686-21.311 5.793-45.853 5.793-70.888 0-25.4-2.169-50.294-6.332-74.506l0.369 2.593c-57.732-8.179-105.914-42.962-132.362-91.328l-0.467-0.932c-3.151-5.861-6.521-11.693-10.002-17.354-16.573-26.562-26.4-58.816-26.4-93.366 0-24.29 4.857-47.445 13.653-68.548l-0.436 1.179c-35.364-29.151-76.308-53.261-120.727-70.376l-3.010-1.020c-32.979 42.028-83.711 68.83-140.71 69.015h-0.031c-1.67 0-3.351 0-5.001-0.070q-4.871-0.14-9.752-0.14c-3.431 0-6.851 0-10.282 0.15-1.79 0.060-3.551 0.080-5.331 0.080-57.094-0.146-107.902-26.932-140.669-68.58l-0.292-0.385c-47.448 18.016-88.413 42.086-124.514 71.843l0.747-0.598c8.378 19.952 13.245 43.142 13.245 67.468 0 34.691-9.898 67.070-27.025 94.466l0.437-0.75q-2.601 4.201-5.081 8.492t-4.841 8.632c-26.937 49.273-75.14 84.021-131.934 92.031l-0.945 0.109c-3.686 21.311-5.793 45.853-5.793 70.888 0 25.4 2.169 50.294 6.332 74.506l-0.369-2.593c57.73 8.187 105.908 42.967 132.362 91.329l0.467 0.931c3.151 5.861 6.521 11.703 10.002 17.354 16.575 26.56 26.404 58.814 26.404 93.363 0 24.291-4.858 47.447-13.656 68.55l0.436-1.179c35.362 29.154 76.302 53.267 120.717 70.386l3.010 1.020zM367.88 927.931c-4.343 0-8.522-0.699-12.433-1.99l0.28 0.080c-72.802-23.735-135.475-60.817-188.1-108.741l0.41 0.368c-8.086-7.44-13.135-18.074-13.135-29.886 0-7.509 2.040-14.542 5.596-20.574l-0.103 0.189c9.242-15.62 14.703-34.425 14.703-54.506 0-20.904-5.918-40.426-16.17-56.982l0.267 0.464q-6.341-10.292-12.063-20.915c-18.743-34.149-54.458-56.913-95.489-56.913-0.074 0-0.149 0-0.223 0h0.011c-0.031 0-0.069 0-0.106 0-19.292 0-35.439-13.462-39.56-31.505l-0.052-0.272c-7.446-32.706-11.713-70.265-11.713-108.821 0-38.191 4.186-75.403 12.125-111.204l-0.633 3.399c4.167-18.358 20.347-31.857 39.679-31.857 0.028 0 0.056 0 0.084 0h0.166c0.073 0 0.159 0 0.246 0 40.967 0 76.629-22.712 95.082-56.232l0.283-0.561q2.831-5.261 5.841-10.472t6.161-10.292c10.065-16.15 16.032-35.758 16.032-56.76 0-20.062-5.445-38.851-14.938-54.972l0.276 0.508-0.090-0.15c-3.445-5.842-5.48-12.872-5.48-20.377 0-11.853 5.075-22.52 13.171-29.947l0.030-0.027c52.239-47.462 114.922-84.462 184.106-107.1l3.615-1.024c3.63-1.21 7.81-1.909 12.152-1.91h0.001c14.967 0.062 28.025 8.176 35.073 20.231l0.104 0.193c19.066 32.717 53.948 54.378 93.897 54.472h3.244q6.181-0.18 12.383-0.19 5.871 0 11.763 0.17h3.001c39.925-0.127 74.758-21.809 93.482-54.014l0.278-0.518c7.158-12.257 20.229-20.374 35.2-20.424h0.007c4.34 0.001 8.516 0.7 12.423 1.99l-0.28-0.080c72.807 23.725 135.485 60.804 188.11 108.731l-0.409-0.367c8.086 7.44 13.135 18.074 13.135 29.886 0 7.509-2.040 14.542-5.596 20.574l0.103-0.189c-9.239 15.618-14.698 34.42-14.698 54.497 0 20.908 5.92 40.433 16.176 56.991l-0.268-0.464q6.331 10.292 12.003 20.915c18.748 34.15 54.466 56.913 95.501 56.913 0.070 0 0.14 0 0.21 0h-0.011c0.034 0 0.075 0 0.116 0 19.286 0 35.429 13.458 39.55 31.495l0.052 0.272c7.445 32.701 11.711 70.254 11.711 108.803 0 38.201-4.19 75.423-12.134 111.232l0.633-3.398c-4.159 18.357-20.334 31.857-39.663 31.857-0.030 0-0.061 0-0.091 0h-0.165c-0.055 0-0.119 0-0.184 0-40.97 0-76.636 22.712-95.094 56.232l-0.283 0.561q-2.841 5.261-5.841 10.472t-6.161 10.292c-10.065 16.15-16.032 35.758-16.032 56.76 0 20.062 5.445 38.851 14.938 54.972l-0.276-0.508 0.090 0.14c3.445 5.842 5.48 12.872 5.48 20.377 0 11.853-5.075 22.52-13.171 29.947l-0.030 0.027c-52.236 47.463-114.915 84.466-184.095 107.109l-3.615 1.024c-3.633 1.21-7.816 1.909-12.162 1.91h-0.001c-14.969-0.056-28.029-8.172-35.073-20.231l-0.104-0.193c-19.066-32.717-53.948-54.378-93.897-54.472h-0.013c-1.080 0-2.15 0-3.231 0.050q-6.201 0.18-12.393 0.19-5.861 0-11.753-0.17h-3.001c-39.916 0.116-74.746 21.779-93.483 53.965l-0.278 0.517c-7.157 12.26-20.228 20.379-35.2 20.434h-0.008z" />
<glyph unicode="&#xe90e;" glyph-name="ziyuangailan" horiz-adv-x="1032" d="M995.925-63.86h-953.472c-19.649 0-35.577 15.929-35.577 35.577s15.929 35.577 35.577 35.577h953.472c19.649 0 35.577-15.929 35.577-35.577s-15.929-35.577-35.577-35.577v0zM883.618 124.149h-734.937c-81.962 0-148.681 66.709-148.681 148.711v538.299c0 82.002 66.719 148.711 148.721 148.711h734.937c81.962 0 148.681-66.709 148.681-148.711v-538.349c0-81.952-66.719-148.661-148.721-148.661zM148.681 888.715c-42.821-0.034-77.526-34.736-77.567-77.553v-538.353c0.040-42.821 34.745-77.522 77.563-77.557h734.94c42.821 0.034 77.526 34.736 77.567 77.553v538.353c-0.040 42.821-34.745 77.522-77.563 77.557h-0.003zM234.010 325.495c-23.58 0-42.695 19.115-42.695 42.695v0 191.104c-0.003 0.195-0.005 0.425-0.005 0.656 0 23.58 19.115 42.695 42.695 42.695s42.695-19.115 42.695-42.695c0-0.231-0.002-0.461-0.005-0.691v0.035-191.104c0-23.576-19.109-42.689-42.684-42.695h-0.001zM422.12 325.495c-23.58 0-42.695 19.115-42.695 42.695v0 105.714c-0.003 0.195-0.005 0.425-0.005 0.656 0 23.58 19.115 42.695 42.695 42.695s42.695-19.115 42.695-42.695c0-0.231-0.002-0.461-0.005-0.691v0.035-105.714c0-23.576-19.109-42.689-42.684-42.695h-0.001zM610.22 325.495c-23.554 0.034-42.634 19.136-42.634 42.695 0 0 0 0 0 0v0 304.953c-0.003 0.195-0.005 0.425-0.005 0.656 0 23.58 19.115 42.695 42.695 42.695s42.695-19.115 42.695-42.695c0-0.231-0.002-0.461-0.005-0.691v0.035-304.953c0-23.58-19.115-42.695-42.695-42.695-0.018 0-0.035 0-0.053 0h0.003zM798.329 325.495c-23.575 0.006-42.685 19.119-42.685 42.695v162.644c0.369 23.296 19.341 42.039 42.69 42.039s42.32-18.743 42.689-42.004v-162.679c0-23.58-19.115-42.695-42.695-42.695v0z" />
<glyph unicode="&#xe90f;" glyph-name="-011" d="M939.41 836.45c-20.659 11.826-45.409 18.8-71.788 18.8-0.032 0-0.065 0-0.097 0h-711.065c-0.024 0-0.053 0-0.082 0-26.136 0-50.669-6.864-71.894-18.888l0.726 0.378c-50.29-24.050-85.21-75.28-85.21-134.66v-512c0-82.34 67-149.33 149.33-149.33h725.34c82.34 0 149.33 67 149.33 149.33v512c0 59.13-34.63 110.19-84.59 134.37zM102.88 762c5.171 4.998 11.074 9.287 17.522 12.68l0.418 0.2c8.444 3.443 18.241 5.447 28.505 5.46h725.345c10.43-0.010 20.375-2.074 29.457-5.808l-0.517 0.188c23.888-12.514 39.907-37.131 39.907-65.49 0-0.369-0.003-0.738-0.008-1.106l0.001 0.056v-0.18c0-0.002 0-0.003 0-0.005 0-0.873-0.422-1.647-1.073-2.13l-0.007-0.005-430.43-310.51-430.42 310.65c-0.667 0.485-1.097 1.262-1.1 2.139v0.001c0 0.078 0 0.171 0 0.263 0 20.967 8.568 39.934 22.393 53.589l0.008 0.008zM874.67 111.86h-725.34c-43.177 0.057-78.163 35.043-78.22 78.215v435.785l403.77-291.42c10.284-7.506 23.176-12.010 37.12-12.010s26.836 4.504 37.301 12.135l-0.181-0.126 403.77 291.32v-435.68c-0.057-43.177-35.043-78.163-78.215-78.22h-0.005z" />
<glyph unicode="&#xe910;" glyph-name="-01" d="M503.57-62.54h-77.349c-53.925 0.068-97.621 43.764-97.689 97.683v0.006c0 0.002 0 0.004 0 0.006 0 22.93-12.358 42.974-30.778 53.834l-0.292 0.159c-20.29 11.72-44.23 11.72-63.509 0.61-14.003-8.199-30.835-13.041-48.798-13.041-35.972 0-67.408 19.417-84.401 48.341l-0.25 0.459-77.999 135.159c-8.208 14.008-13.055 30.848-13.055 48.819 0 35.959 19.405 67.386 48.315 84.38l0.459 0.249c18.751 11.001 31.149 31.049 31.18 53.995v0.004c0 23.37-11.92 44.070-31.15 55.169-29.406 17.237-48.84 48.686-48.84 84.674 0 17.97 4.845 34.807 13.301 49.278l-0.25-0.463 77.999 135.169c17.198 29.427 48.636 48.883 84.618 48.883 18.015 0 34.892-4.877 49.38-13.383l-0.459 0.249c8.964-5.25 19.74-8.351 31.24-8.351s22.275 3.1 31.537 8.511l-0.297-0.16 3 1.72c17.507 10.292 29.082 29.020 29.12 50.454v2.435c0 53.928 43.697 97.649 97.615 97.689h156.082c53.931-0.057 97.636-43.758 97.699-97.683v-0.006c0-0.004 0-0.008 0-0.012 0-22.929 12.359-42.971 30.778-53.828l0.292-0.159c20.31-11.75 44.24-11.75 63.519-0.62 14.008 8.225 30.852 13.083 48.831 13.083 35.956 0 67.374-19.43 84.328-48.362l0.25-0.461 77.999-135.169c8.238-14.018 13.103-30.876 13.103-48.871 0-35.951-19.42-67.367-48.343-84.328l-0.46-0.249c-18.753-10.999-31.151-31.048-31.18-53.995v-0.004c-0.001-0.138-0.002-0.302-0.002-0.466 0-15.184 5.278-29.135 14.099-40.119l-0.097 0.125c4.74-5.944 7.605-13.566 7.605-21.856 0-6.55-1.789-12.683-4.904-17.936l0.089 0.163c-12.41-21.53-42.69-24.090-58.259-4.72-18.377 22.683-29.51 51.889-29.53 83.695v0.004c0 48.57 25.51 92.849 66.659 116.619 8.040 4.709 13.354 13.305 13.354 23.142 0 4.902-1.319 9.495-3.622 13.445l0.068-0.127-78.059 135.139c-4.702 8.030-13.286 13.337-23.11 13.337-4.907 0-9.506-1.324-13.456-3.635l0.126 0.068c-19.158-11.218-42.185-17.842-66.759-17.842s-47.602 6.624-67.394 18.184l0.634-0.342c-42.080 24.36-67.559 68.549-67.559 115.959 0 0.027 0 0.058 0 0.090 0 14.754-11.949 26.717-26.698 26.74h-156.080c-14.733-0.006-26.674-11.947-26.68-26.679v-2.411c-0.078-47.54-25.731-89.072-63.933-111.579l-0.606-0.33-3-1.73c-19.156-11.222-42.184-17.85-66.759-17.85s-47.603 6.627-67.393 18.192l0.634-0.342c-3.826 2.246-8.427 3.573-13.338 3.573-9.849 0-18.451-5.337-23.073-13.276l-0.068-0.127-77.999-135.159c-2.241-3.825-3.564-8.423-3.564-13.33 0-9.826 5.306-18.412 13.209-23.051l0.126-0.068c40.112-23.549 66.628-66.452 66.679-115.551v-0.007c0-48.61-25.52-92.889-66.669-116.629-8.031-4.711-13.339-13.303-13.339-23.134 0-4.905 1.321-9.502 3.627-13.453l-0.068 0.127 77.999-135.179c4.713-8.025 13.3-13.327 23.127-13.327 4.904 0 9.499 1.321 13.45 3.625l-0.127-0.068c19.158 11.218 42.185 17.842 66.759 17.842s47.602-6.624 67.394-18.184l-0.634 0.342c42.070-24.32 67.569-68.519 67.569-115.929 0-0.024 0-0.052 0-0.080 0-14.747 11.938-26.706 26.677-26.74h78.002c19.362-0.002 35.102-15.504 35.489-34.774l0.001-0.036c0.44-19.93-16.23-36.22-36.14-36.22zM504.27 218.227c-127.109 0-230.518 103.399-230.518 230.498s103.409 230.518 230.518 230.518 230.498-103.409 230.498-230.518c-0.471-19.246-16.185-34.667-35.5-34.667s-35.028 15.421-35.499 34.623l-0.001 0.044c0 87.999-71.549 159.508-159.488 159.508s-159.518-71.549-159.518-159.508 71.549-159.488 159.508-159.488c19.246-0.471 34.667-16.185 34.667-35.5s-15.421-35.028-34.623-35.499l-0.044-0.001zM979.095-63.99h-354.737c-0.251-0.006-0.546-0.010-0.843-0.010-19.611 0-35.51 15.898-35.51 35.51s15.898 35.51 35.51 35.51c0.296 0 0.592-0.004 0.886-0.011l-0.044 0.001h354.737c0.251 0.006 0.546 0.010 0.843 0.010 19.611 0 35.51-15.898 35.51-35.51s-15.898-35.51-35.51-35.51c-0.296 0-0.592 0.004-0.886 0.011l0.044-0.001zM979.095 77.119h-354.737c-0.251-0.006-0.546-0.010-0.843-0.010-19.611 0-35.51 15.898-35.51 35.51s15.898 35.51 35.51 35.51c0.296 0 0.592-0.004 0.886-0.011l-0.044 0.001h354.737c0.251 0.006 0.546 0.010 0.843 0.010 19.611 0 35.51-15.898 35.51-35.51s-15.898-35.51-35.51-35.51c-0.296 0-0.592 0.004-0.886 0.011l0.044-0.001zM979.095 218.227h-354.737c-0.251-0.006-0.546-0.010-0.843-0.010-19.611 0-35.51 15.898-35.51 35.51s15.898 35.51 35.51 35.51c0.296 0 0.592-0.004 0.886-0.011l-0.044 0.001h354.737c0.251 0.006 0.546 0.010 0.843 0.010 19.611 0 35.51-15.898 35.51-35.51s-15.898-35.51-35.51-35.51c-0.296 0-0.592 0.004-0.886 0.011l0.044-0.001z" />
<glyph unicode="&#xe911;" glyph-name="uniE911" d="M320.48-62.38h-135.43c-82.21 0-149.060 66.89-149.060 149.1v724.18c0 82.21 66.85 149.1 149.060 149.1h582.18c82.22 0 149.1-66.89 149.1-149.1v-224.57c0-19.606-15.894-35.5-35.5-35.5s-35.5 15.894-35.5 35.5v0 224.57c-0.051 43.113-34.987 78.049-78.095 78.1h-582.185c-43.096-0.074-78.009-35.001-78.060-78.095v-724.185c0.051-43.113 34.987-78.049 78.095-78.1h135.395c19.606 0 35.5-15.894 35.5-35.5s-15.894-35.5-35.5-35.5v0zM737.49 664h-522.69c-19.606 0-35.5 15.894-35.5 35.5s15.894 35.5 35.5 35.5v0h522.69c19.606 0 35.5-15.894 35.5-35.5s-15.894-35.5-35.5-35.5v0zM552.89 444.71h-338.090c-19.606 0-35.5 15.894-35.5 35.5s15.894 35.5 35.5 35.5v0h338.090c19.606 0 35.5-15.894 35.5-35.5s-15.894-35.5-35.5-35.5v0zM410.9 225.4h-196.1c-19.606 0-35.5 15.894-35.5 35.5s15.894 35.5 35.5 35.5v0h196.1c19.606 0 35.5-15.894 35.5-35.5s-15.894-35.5-35.5-35.5v0zM703.72 360.23c77.15 0 139.93-62.77 139.93-139.93s-62.78-139.93-139.93-139.93-139.93 62.77-139.93 139.93 62.77 139.93 139.93 139.93zM703.72 431.23c-116.49 0-210.93-94.43-210.93-210.92s94.44-210.93 210.93-210.93 210.92 94.43 210.92 210.92-94.43 210.92-210.92 210.92zM952.52-64c-0.012 0-0.025 0-0.039 0-9.824 0-18.713 3.999-25.129 10.458l-0.002 0.002-107.17 107.73c-6.387 6.418-10.335 15.268-10.335 25.040 0 19.606 15.894 35.5 35.5 35.5 9.834 0 18.735-3.999 25.164-10.459l107.181-107.731c6.395-6.418 10.35-15.272 10.35-25.050 0-19.601-15.889-35.49-35.49-35.49-0.010 0-0.021 0-0.031 0h0.002z" />
<glyph unicode="&#xe912;" glyph-name="-012" d="M803.56-64h-583.12c-82.34 0-149.33 67-149.33 149.33v725.34c0 82.33 66.99 149.33 149.33 149.33h583.12c82.34 0 149.33-67 149.33-149.33v-725.34c0-82.33-66.99-149.33-149.33-149.33zM220.44 888.89c-43.177-0.057-78.163-35.043-78.22-78.215v-725.345c0.057-43.177 35.043-78.163 78.215-78.22h583.125c43.177 0.057 78.163 35.043 78.22 78.215v725.345c-0.057 43.177-35.043 78.163-78.215 78.22h-0.005zM512 312.1c-0.052 0-0.114 0-0.176 0-16.504 0-31.439 6.717-42.221 17.567l-163.843 163.833c-6.813 6.489-11.050 15.63-11.050 25.76 0 19.634 15.916 35.55 35.55 35.55 10.12 0 19.253-4.229 25.727-11.016l0.013-0.014 156-155.95 155.94 155.95c6.434 6.434 15.322 10.413 25.14 10.413 19.636 0 35.553-15.918 35.553-35.553 0-9.818-3.979-18.706-10.413-25.14l-163.84-163.85c-10.78-10.841-25.704-17.55-42.196-17.55-0.065 0-0.13 0-0.194 0h0.010zM512 316.76c-19.639 0-35.56 15.921-35.56 35.56v0 377.79c0 19.639 15.921 35.56 35.56 35.56s35.56-15.921 35.56-35.56v-377.79c0-19.639-15.921-35.56-35.56-35.56v0zM753.78 158.15h-483.56c-19.381 0.335-34.964 16.125-34.964 35.555s15.583 35.22 34.932 35.555h483.591c19.381-0.335 34.964-16.125 34.964-35.555s-15.583-35.22-34.932-35.555h-0.031z" />
<glyph unicode="&#xe913;" d="M102 947h820q89 0 89-89v-820q0-89-89-89h-820q-89 0-89 89v820q0 89 89 89z" />
<glyph unicode="&#xe914;" d="M922 934c41.955-0.045 75.955-34.045 76-75.996v-820.004c-0.045-41.955-34.045-75.955-75.996-76h-820.004c-41.955 0.045-75.955 34.045-76 75.996v820.004c0.045 41.955 34.045 75.955 75.996 76h820.004zM922 960h-820c-56.333 0-102-45.667-102-102v0-820c0-56.333 45.667-102 102-102v0h820c56.333 0 102 45.667 102 102v0 820c0 56.333-45.667 102-102 102v0z" />
<glyph unicode="&#xe915;" d="M315.26 397.64v100.72h131.29l-98.78 98.78c-2.929 2.933-6.978 4.748-11.45 4.748s-8.521-1.815-11.45-4.748v0l-104.75-104.75c-2.933-2.929-4.748-6.978-4.748-11.45s1.815-8.521 4.748-11.45v0l21.49-21.49-21.49-21.49c-2.933-2.929-4.748-6.978-4.748-11.45s1.815-8.521 4.748-11.45v0l104.75-104.75c2.929-2.933 6.978-4.748 11.45-4.748s8.521 1.815 11.45 4.748v0l98.78 98.78zM561.78 383.13v-131.29h-100.72v130.16l-98.2-98.2c-2.933-2.929-4.748-6.978-4.748-11.45s1.815-8.521 4.748-11.45v0l104.75-104.79c2.931-2.929 6.979-4.74 11.45-4.74s8.519 1.811 11.45 4.74l21.49 21.49 21.49-21.49c2.931-2.929 6.979-4.74 11.45-4.74s8.519 1.811 11.45 4.74v0l104.75 104.76c2.933 2.929 4.748 6.978 4.748 11.45s-1.815 8.521-4.748 11.45v0zM782.39 448l21.49 21.49c2.933 2.929 4.748 6.978 4.748 11.45s-1.815 8.521-4.748 11.45v0l-104.75 104.75c-2.929 2.933-6.978 4.748-11.45 4.748s-8.521-1.815-11.45-4.748v0l-98.78-98.78h130.13v-100.72h-130.13l98.78-98.78c2.929-2.933 6.978-4.748 11.45-4.748s8.521 1.815 11.45 4.748v0l104.75 104.75c2.933 2.929 4.748 6.978 4.748 11.45s-1.815 8.521-4.748 11.45v0zM461.060 514v130.16h100.72v-131.29l99.36 99.36c2.933 2.929 4.748 6.978 4.748 11.45s-1.815 8.521-4.748 11.45v0l-104.75 104.76c-2.931 2.929-6.979 4.74-11.45 4.74s-8.519-1.811-11.45-4.74l-21.49-21.49-21.49 21.49c-2.931 2.929-6.979 4.74-11.45 4.74s-8.519-1.811-11.45-4.74v0l-104.75-104.76c-2.933-2.929-4.748-6.978-4.748-11.45s1.815-8.521 4.748-11.45v0z" />
<glyph unicode="&#xe916;" d="M102 947h820q89 0 89-89v-820q0-89-89-89h-820q-89 0-89 89v820q0 89 89 89z" />
<glyph unicode="&#xe917;" d="M922 934c41.955-0.045 75.955-34.045 76-75.996v-820.004c-0.045-41.955-34.045-75.955-75.996-76h-820.004c-41.955 0.045-75.955 34.045-76 75.996v820.004c0.045 41.955 34.045 75.955 75.996 76h820.004zM922 960h-820c-56.333 0-102-45.667-102-102v0-820c0-56.333 45.667-102 102-102v0h820c56.333 0 102 45.667 102 102v0 820c0 56.333-45.667 102-102 102v0z" />
<glyph unicode="&#xe918;" d="M286.22 514.74v-177.58h451.71v66.6c0 37.74-26.87 66.59-62 66.59h-141.72v-66.59h-103.34l-103.31 66.59v22.18l103.31-66.58h82.68v44.4h-41.34l-103.34 66.58c-41.31 22.21-82.65 8.88-82.65-22.19zM334.93 581.66c37.64 0 66.43 28.79 66.43 66.43s-28.79 66.42-66.43 66.42-66.43-28.78-66.43-66.42 28.79-66.43 66.43-66.43zM758.58 625.72v-310.72h-493v310.72h-41.36v-443.93h41.34v88.79h493v-88.79h41.34v443.95h-41.32z" />
</font>
</defs>
</svg>
